<svg width="1600" height="700" viewBox="0 0 1600 700" fill="none" xmlns="http://www.w3.org/2000/svg" role="img" aria-label="Painel de cadastro Help Floripa com cidade e elementos digitais">
  <defs>
    <linearGradient id="bg" x1="0" y1="0" x2="1" y2="1">
      <stop offset="0%" stop-color="#031525"/>
      <stop offset="45%" stop-color="#0A2A47"/>
      <stop offset="100%" stop-color="#0D3B66"/>
    </linearGradient>
    <linearGradient id="accent" x1="0" y1="0" x2="1" y2="1">
      <stop offset="0%" stop-color="#00ADEE" stop-opacity="0.95"/>
      <stop offset="100%" stop-color="#7AE2FF" stop-opacity="0.65"/>
    </linearGradient>
    <filter id="blur40" x="-20%" y="-20%" width="140%" height="140%">
      <feGaussianBlur stdDeviation="40"/>
    </filter>
  </defs>

  <rect width="1600" height="700" fill="url(#bg)"/>

  <circle cx="1320" cy="130" r="170" fill="#00ADEE" fill-opacity="0.35" filter="url(#blur40)"/>
  <circle cx="260" cy="560" r="210" fill="#00ADEE" fill-opacity="0.22" filter="url(#blur40)"/>

  <g opacity="0.28">
    <path d="M0 560C220 450 430 470 680 560C960 660 1270 650 1600 520V700H0V560Z" fill="#00121F"/>
    <path d="M0 600C300 530 520 565 760 620C980 670 1280 680 1600 610V700H0V600Z" fill="#000B13"/>
  </g>

  <g opacity="0.75">
    <rect x="980" y="150" width="360" height="220" rx="18" fill="#061E32" stroke="#00ADEE" stroke-opacity="0.55"/>
    <rect x="1020" y="195" width="220" height="18" rx="9" fill="url(#accent)"/>
    <rect x="1020" y="228" width="270" height="14" rx="7" fill="#7AE2FF" fill-opacity="0.4"/>
    <rect x="1020" y="256" width="160" height="14" rx="7" fill="#7AE2FF" fill-opacity="0.3"/>
    <rect x="1020" y="292" width="130" height="38" rx="19" fill="url(#accent)"/>
  </g>

  <g opacity="0.6">
    <circle cx="210" cy="180" r="56" stroke="#7AE2FF" stroke-width="2"/>
    <circle cx="210" cy="180" r="24" fill="#00ADEE" fill-opacity="0.55"/>
    <path d="M210 208V248" stroke="#7AE2FF" stroke-width="3" stroke-linecap="round"/>
    <path d="M186 232H234" stroke="#7AE2FF" stroke-width="3" stroke-linecap="round"/>
  </g>

  <g opacity="0.35" stroke="#7AE2FF" stroke-width="1.5">
    <path d="M430 120H820"/>
    <path d="M430 160H760"/>
    <path d="M430 200H700"/>
  </g>

  <text x="120" y="450" fill="#D8F6FF" font-family="Arial, Helvetica, sans-serif" font-size="68" font-weight="700">Help Floripa</text>
  <text x="120" y="510" fill="#8ADDF8" font-family="Arial, Helvetica, sans-serif" font-size="34" font-weight="500">Cadastro rápido para clientes e profissionais</text>
</svg>
